<mxfile host="app.diagrams.net" modified="2023-07-10T18:04:26.314Z" agent="Mozilla/5.0 (Windows NT 10.0; Win64; x64) AppleWebKit/537.36 (KHTML, like Gecko) Chrome/113.0.0.0 Safari/537.36 OPR/99.0.0.0 (Edition std-1)" etag="lZ9BOZMS7qxRzud2onmg" version="21.6.1" type="device">
  <diagram name="Страница 1" id="8FAT1eZCE_aqT5x8DHax">
    <mxGraphModel dx="1990" dy="1109" grid="1" gridSize="10" guides="1" tooltips="1" connect="1" arrows="1" fold="1" page="1" pageScale="1" pageWidth="827" pageHeight="1169" math="0" shadow="0">
      <root>
        <mxCell id="0" />
        <mxCell id="1" parent="0" />
        <mxCell id="_LlIl6xtUvHQYEDM4ap0-8" style="edgeStyle=orthogonalEdgeStyle;rounded=0;orthogonalLoop=1;jettySize=auto;html=1;entryX=0.5;entryY=0;entryDx=0;entryDy=0;" edge="1" parent="1" source="_LlIl6xtUvHQYEDM4ap0-1" target="_LlIl6xtUvHQYEDM4ap0-10">
          <mxGeometry relative="1" as="geometry">
            <mxPoint x="414" y="260" as="targetPoint" />
          </mxGeometry>
        </mxCell>
        <mxCell id="_LlIl6xtUvHQYEDM4ap0-9" style="edgeStyle=orthogonalEdgeStyle;rounded=0;orthogonalLoop=1;jettySize=auto;html=1;entryX=0.5;entryY=0;entryDx=0;entryDy=0;" edge="1" parent="1" source="_LlIl6xtUvHQYEDM4ap0-1" target="_LlIl6xtUvHQYEDM4ap0-5">
          <mxGeometry relative="1" as="geometry" />
        </mxCell>
        <mxCell id="_LlIl6xtUvHQYEDM4ap0-15" style="edgeStyle=orthogonalEdgeStyle;rounded=0;orthogonalLoop=1;jettySize=auto;html=1;" edge="1" parent="1" source="_LlIl6xtUvHQYEDM4ap0-1" target="_LlIl6xtUvHQYEDM4ap0-14">
          <mxGeometry relative="1" as="geometry" />
        </mxCell>
        <mxCell id="_LlIl6xtUvHQYEDM4ap0-1" value="ServeA" style="rounded=0;whiteSpace=wrap;html=1;" vertex="1" parent="1">
          <mxGeometry x="354" y="120" width="120" height="60" as="geometry" />
        </mxCell>
        <mxCell id="_LlIl6xtUvHQYEDM4ap0-5" value="OUT/Error&lt;br&gt;B+1" style="ellipse;whiteSpace=wrap;html=1;aspect=fixed;" vertex="1" parent="1">
          <mxGeometry x="190" y="260" width="80" height="80" as="geometry" />
        </mxCell>
        <mxCell id="_LlIl6xtUvHQYEDM4ap0-13" style="edgeStyle=orthogonalEdgeStyle;rounded=0;orthogonalLoop=1;jettySize=auto;html=1;entryX=0.5;entryY=0;entryDx=0;entryDy=0;" edge="1" parent="1" source="_LlIl6xtUvHQYEDM4ap0-10" target="_LlIl6xtUvHQYEDM4ap0-12">
          <mxGeometry relative="1" as="geometry" />
        </mxCell>
        <mxCell id="_LlIl6xtUvHQYEDM4ap0-17" style="edgeStyle=orthogonalEdgeStyle;rounded=0;orthogonalLoop=1;jettySize=auto;html=1;entryX=0.5;entryY=0;entryDx=0;entryDy=0;" edge="1" parent="1" source="_LlIl6xtUvHQYEDM4ap0-10" target="_LlIl6xtUvHQYEDM4ap0-16">
          <mxGeometry relative="1" as="geometry" />
        </mxCell>
        <mxCell id="_LlIl6xtUvHQYEDM4ap0-10" value="DefenceB" style="rounded=0;whiteSpace=wrap;html=1;" vertex="1" parent="1">
          <mxGeometry x="354" y="360" width="120" height="60" as="geometry" />
        </mxCell>
        <mxCell id="_LlIl6xtUvHQYEDM4ap0-12" value="OUT/Error&lt;br&gt;A+1" style="ellipse;whiteSpace=wrap;html=1;aspect=fixed;" vertex="1" parent="1">
          <mxGeometry x="190" y="500" width="80" height="80" as="geometry" />
        </mxCell>
        <mxCell id="_LlIl6xtUvHQYEDM4ap0-14" value="Point&lt;br&gt;A+1" style="ellipse;whiteSpace=wrap;html=1;aspect=fixed;" vertex="1" parent="1">
          <mxGeometry x="570" y="250" width="80" height="80" as="geometry" />
        </mxCell>
        <mxCell id="_LlIl6xtUvHQYEDM4ap0-19" style="edgeStyle=orthogonalEdgeStyle;rounded=0;orthogonalLoop=1;jettySize=auto;html=1;entryX=0.5;entryY=0;entryDx=0;entryDy=0;" edge="1" parent="1" source="_LlIl6xtUvHQYEDM4ap0-16" target="_LlIl6xtUvHQYEDM4ap0-18">
          <mxGeometry relative="1" as="geometry" />
        </mxCell>
        <mxCell id="_LlIl6xtUvHQYEDM4ap0-23" style="edgeStyle=orthogonalEdgeStyle;rounded=0;orthogonalLoop=1;jettySize=auto;html=1;entryX=0.5;entryY=0;entryDx=0;entryDy=0;" edge="1" parent="1" source="_LlIl6xtUvHQYEDM4ap0-16" target="_LlIl6xtUvHQYEDM4ap0-20">
          <mxGeometry relative="1" as="geometry" />
        </mxCell>
        <mxCell id="_LlIl6xtUvHQYEDM4ap0-16" value="SetB" style="rounded=0;whiteSpace=wrap;html=1;" vertex="1" parent="1">
          <mxGeometry x="354" y="630" width="120" height="60" as="geometry" />
        </mxCell>
        <mxCell id="_LlIl6xtUvHQYEDM4ap0-18" value="OUT/Error&lt;br&gt;A+1" style="ellipse;whiteSpace=wrap;html=1;aspect=fixed;" vertex="1" parent="1">
          <mxGeometry x="200" y="780" width="80" height="80" as="geometry" />
        </mxCell>
        <mxCell id="_LlIl6xtUvHQYEDM4ap0-25" style="edgeStyle=orthogonalEdgeStyle;rounded=0;orthogonalLoop=1;jettySize=auto;html=1;" edge="1" parent="1" source="_LlIl6xtUvHQYEDM4ap0-20" target="_LlIl6xtUvHQYEDM4ap0-24">
          <mxGeometry relative="1" as="geometry" />
        </mxCell>
        <mxCell id="_LlIl6xtUvHQYEDM4ap0-28" style="edgeStyle=orthogonalEdgeStyle;rounded=0;orthogonalLoop=1;jettySize=auto;html=1;entryX=0.5;entryY=0;entryDx=0;entryDy=0;" edge="1" parent="1" source="_LlIl6xtUvHQYEDM4ap0-20" target="_LlIl6xtUvHQYEDM4ap0-27">
          <mxGeometry relative="1" as="geometry" />
        </mxCell>
        <mxCell id="_LlIl6xtUvHQYEDM4ap0-30" style="edgeStyle=orthogonalEdgeStyle;rounded=0;orthogonalLoop=1;jettySize=auto;html=1;" edge="1" parent="1" source="_LlIl6xtUvHQYEDM4ap0-20" target="_LlIl6xtUvHQYEDM4ap0-29">
          <mxGeometry relative="1" as="geometry">
            <Array as="points">
              <mxPoint x="320" y="950" />
              <mxPoint x="320" y="1160" />
            </Array>
          </mxGeometry>
        </mxCell>
        <mxCell id="_LlIl6xtUvHQYEDM4ap0-32" style="edgeStyle=orthogonalEdgeStyle;rounded=0;orthogonalLoop=1;jettySize=auto;html=1;" edge="1" parent="1" source="_LlIl6xtUvHQYEDM4ap0-20" target="_LlIl6xtUvHQYEDM4ap0-31">
          <mxGeometry relative="1" as="geometry" />
        </mxCell>
        <mxCell id="_LlIl6xtUvHQYEDM4ap0-20" value="SpikeB" style="rounded=0;whiteSpace=wrap;html=1;" vertex="1" parent="1">
          <mxGeometry x="354" y="920" width="120" height="60" as="geometry" />
        </mxCell>
        <mxCell id="_LlIl6xtUvHQYEDM4ap0-21" value="TEAM A - A" style="text;html=1;strokeColor=none;fillColor=none;align=center;verticalAlign=middle;whiteSpace=wrap;rounded=0;" vertex="1" parent="1">
          <mxGeometry x="40" y="30" width="90" height="30" as="geometry" />
        </mxCell>
        <mxCell id="_LlIl6xtUvHQYEDM4ap0-22" value="TEAM B - B" style="text;html=1;strokeColor=none;fillColor=none;align=center;verticalAlign=middle;whiteSpace=wrap;rounded=0;" vertex="1" parent="1">
          <mxGeometry x="170" y="30" width="90" height="30" as="geometry" />
        </mxCell>
        <mxCell id="_LlIl6xtUvHQYEDM4ap0-24" value="OUT/Error&lt;br&gt;A+1" style="ellipse;whiteSpace=wrap;html=1;aspect=fixed;" vertex="1" parent="1">
          <mxGeometry x="160" y="990" width="80" height="80" as="geometry" />
        </mxCell>
        <mxCell id="_LlIl6xtUvHQYEDM4ap0-27" value="Point&lt;br&gt;B+1" style="ellipse;whiteSpace=wrap;html=1;aspect=fixed;" vertex="1" parent="1">
          <mxGeometry x="550" y="980" width="80" height="80" as="geometry" />
        </mxCell>
        <mxCell id="_LlIl6xtUvHQYEDM4ap0-33" style="edgeStyle=orthogonalEdgeStyle;rounded=0;orthogonalLoop=1;jettySize=auto;html=1;entryX=0.007;entryY=0.624;entryDx=0;entryDy=0;entryPerimeter=0;" edge="1" parent="1" source="_LlIl6xtUvHQYEDM4ap0-29" target="_LlIl6xtUvHQYEDM4ap0-31">
          <mxGeometry relative="1" as="geometry">
            <Array as="points">
              <mxPoint x="200" y="1357" />
            </Array>
          </mxGeometry>
        </mxCell>
        <mxCell id="_LlIl6xtUvHQYEDM4ap0-35" style="edgeStyle=orthogonalEdgeStyle;rounded=0;orthogonalLoop=1;jettySize=auto;html=1;entryX=1;entryY=0.5;entryDx=0;entryDy=0;" edge="1" parent="1" source="_LlIl6xtUvHQYEDM4ap0-29" target="_LlIl6xtUvHQYEDM4ap0-34">
          <mxGeometry relative="1" as="geometry">
            <Array as="points">
              <mxPoint x="70" y="1170" />
              <mxPoint x="70" y="1170" />
            </Array>
          </mxGeometry>
        </mxCell>
        <mxCell id="_LlIl6xtUvHQYEDM4ap0-37" style="edgeStyle=orthogonalEdgeStyle;rounded=0;orthogonalLoop=1;jettySize=auto;html=1;" edge="1" parent="1" source="_LlIl6xtUvHQYEDM4ap0-29" target="_LlIl6xtUvHQYEDM4ap0-36">
          <mxGeometry relative="1" as="geometry" />
        </mxCell>
        <mxCell id="_LlIl6xtUvHQYEDM4ap0-29" value="BlockA" style="rounded=0;whiteSpace=wrap;html=1;" vertex="1" parent="1">
          <mxGeometry x="130" y="1140" width="120" height="60" as="geometry" />
        </mxCell>
        <mxCell id="_LlIl6xtUvHQYEDM4ap0-41" style="edgeStyle=orthogonalEdgeStyle;rounded=0;orthogonalLoop=1;jettySize=auto;html=1;entryX=0.613;entryY=0.02;entryDx=0;entryDy=0;entryPerimeter=0;" edge="1" parent="1" source="_LlIl6xtUvHQYEDM4ap0-31" target="_LlIl6xtUvHQYEDM4ap0-39">
          <mxGeometry relative="1" as="geometry" />
        </mxCell>
        <mxCell id="_LlIl6xtUvHQYEDM4ap0-43" style="edgeStyle=orthogonalEdgeStyle;rounded=0;orthogonalLoop=1;jettySize=auto;html=1;" edge="1" parent="1" source="_LlIl6xtUvHQYEDM4ap0-31" target="_LlIl6xtUvHQYEDM4ap0-42">
          <mxGeometry relative="1" as="geometry" />
        </mxCell>
        <mxCell id="_LlIl6xtUvHQYEDM4ap0-31" value="DefenceA" style="rounded=0;whiteSpace=wrap;html=1;" vertex="1" parent="1">
          <mxGeometry x="354" y="1320" width="120" height="60" as="geometry" />
        </mxCell>
        <mxCell id="_LlIl6xtUvHQYEDM4ap0-34" value="Point&lt;br&gt;A+1" style="ellipse;whiteSpace=wrap;html=1;aspect=fixed;" vertex="1" parent="1">
          <mxGeometry x="10" y="1130" width="80" height="80" as="geometry" />
        </mxCell>
        <mxCell id="_LlIl6xtUvHQYEDM4ap0-36" value="OUT/Error&lt;br&gt;B+1" style="ellipse;whiteSpace=wrap;html=1;aspect=fixed;" vertex="1" parent="1">
          <mxGeometry x="50" y="1240" width="80" height="80" as="geometry" />
        </mxCell>
        <mxCell id="_LlIl6xtUvHQYEDM4ap0-38" style="edgeStyle=orthogonalEdgeStyle;rounded=0;orthogonalLoop=1;jettySize=auto;html=1;entryX=0.5;entryY=0;entryDx=0;entryDy=0;" edge="1" parent="1" source="_LlIl6xtUvHQYEDM4ap0-39" target="_LlIl6xtUvHQYEDM4ap0-40">
          <mxGeometry relative="1" as="geometry" />
        </mxCell>
        <mxCell id="_LlIl6xtUvHQYEDM4ap0-46" value="" style="edgeStyle=orthogonalEdgeStyle;rounded=0;orthogonalLoop=1;jettySize=auto;html=1;" edge="1" parent="1" source="_LlIl6xtUvHQYEDM4ap0-39" target="_LlIl6xtUvHQYEDM4ap0-45">
          <mxGeometry relative="1" as="geometry" />
        </mxCell>
        <mxCell id="_LlIl6xtUvHQYEDM4ap0-39" value="SetA" style="rounded=0;whiteSpace=wrap;html=1;" vertex="1" parent="1">
          <mxGeometry x="340" y="1470" width="120" height="60" as="geometry" />
        </mxCell>
        <mxCell id="_LlIl6xtUvHQYEDM4ap0-40" value="OUT/Error&lt;br&gt;B+1" style="ellipse;whiteSpace=wrap;html=1;aspect=fixed;" vertex="1" parent="1">
          <mxGeometry x="180" y="1560" width="80" height="80" as="geometry" />
        </mxCell>
        <mxCell id="_LlIl6xtUvHQYEDM4ap0-42" value="OUT/Error&lt;br&gt;B+1" style="ellipse;whiteSpace=wrap;html=1;aspect=fixed;" vertex="1" parent="1">
          <mxGeometry x="610" y="1310" width="80" height="80" as="geometry" />
        </mxCell>
        <mxCell id="_LlIl6xtUvHQYEDM4ap0-49" style="edgeStyle=orthogonalEdgeStyle;rounded=0;orthogonalLoop=1;jettySize=auto;html=1;entryX=0.447;entryY=0.002;entryDx=0;entryDy=0;entryPerimeter=0;" edge="1" parent="1" source="_LlIl6xtUvHQYEDM4ap0-45" target="_LlIl6xtUvHQYEDM4ap0-47">
          <mxGeometry relative="1" as="geometry" />
        </mxCell>
        <mxCell id="_LlIl6xtUvHQYEDM4ap0-52" style="edgeStyle=orthogonalEdgeStyle;rounded=0;orthogonalLoop=1;jettySize=auto;html=1;entryX=0.505;entryY=-0.041;entryDx=0;entryDy=0;entryPerimeter=0;" edge="1" parent="1" source="_LlIl6xtUvHQYEDM4ap0-45" target="_LlIl6xtUvHQYEDM4ap0-48">
          <mxGeometry relative="1" as="geometry" />
        </mxCell>
        <mxCell id="_LlIl6xtUvHQYEDM4ap0-53" style="edgeStyle=orthogonalEdgeStyle;rounded=0;orthogonalLoop=1;jettySize=auto;html=1;" edge="1" parent="1" source="_LlIl6xtUvHQYEDM4ap0-45" target="_LlIl6xtUvHQYEDM4ap0-50">
          <mxGeometry relative="1" as="geometry">
            <Array as="points">
              <mxPoint x="440" y="1870" />
            </Array>
          </mxGeometry>
        </mxCell>
        <mxCell id="_LlIl6xtUvHQYEDM4ap0-54" style="edgeStyle=orthogonalEdgeStyle;rounded=0;orthogonalLoop=1;jettySize=auto;html=1;" edge="1" parent="1">
          <mxGeometry relative="1" as="geometry">
            <mxPoint x="474" y="410" as="targetPoint" />
            <mxPoint x="460" y="1719.9999999999995" as="sourcePoint" />
            <Array as="points">
              <mxPoint x="780" y="1720" />
              <mxPoint x="780" y="410" />
              <mxPoint x="474" y="410" />
            </Array>
          </mxGeometry>
        </mxCell>
        <mxCell id="_LlIl6xtUvHQYEDM4ap0-45" value="SpikeA" style="rounded=0;whiteSpace=wrap;html=1;" vertex="1" parent="1">
          <mxGeometry x="340" y="1680" width="120" height="60" as="geometry" />
        </mxCell>
        <mxCell id="_LlIl6xtUvHQYEDM4ap0-47" value="OUT/Error&lt;br&gt;B+1" style="ellipse;whiteSpace=wrap;html=1;aspect=fixed;" vertex="1" parent="1">
          <mxGeometry x="170" y="1800" width="80" height="80" as="geometry" />
        </mxCell>
        <mxCell id="_LlIl6xtUvHQYEDM4ap0-48" value="Point&lt;br&gt;A+1" style="ellipse;whiteSpace=wrap;html=1;aspect=fixed;" vertex="1" parent="1">
          <mxGeometry x="270" y="1830" width="80" height="80" as="geometry" />
        </mxCell>
        <mxCell id="_LlIl6xtUvHQYEDM4ap0-55" style="edgeStyle=orthogonalEdgeStyle;rounded=0;orthogonalLoop=1;jettySize=auto;html=1;" edge="1" parent="1" source="_LlIl6xtUvHQYEDM4ap0-50">
          <mxGeometry relative="1" as="geometry">
            <mxPoint x="474" y="390" as="targetPoint" />
            <Array as="points">
              <mxPoint x="800" y="1870" />
              <mxPoint x="800" y="390" />
              <mxPoint x="474" y="390" />
            </Array>
          </mxGeometry>
        </mxCell>
        <mxCell id="_LlIl6xtUvHQYEDM4ap0-57" style="edgeStyle=orthogonalEdgeStyle;rounded=0;orthogonalLoop=1;jettySize=auto;html=1;" edge="1" parent="1" source="_LlIl6xtUvHQYEDM4ap0-50" target="_LlIl6xtUvHQYEDM4ap0-56">
          <mxGeometry relative="1" as="geometry" />
        </mxCell>
        <mxCell id="_LlIl6xtUvHQYEDM4ap0-50" value="BlockB" style="rounded=0;whiteSpace=wrap;html=1;" vertex="1" parent="1">
          <mxGeometry x="474" y="1840" width="120" height="60" as="geometry" />
        </mxCell>
        <mxCell id="_LlIl6xtUvHQYEDM4ap0-56" value="OUT/Error&lt;br&gt;A+1" style="ellipse;whiteSpace=wrap;html=1;aspect=fixed;" vertex="1" parent="1">
          <mxGeometry x="494" y="1950" width="80" height="80" as="geometry" />
        </mxCell>
      </root>
    </mxGraphModel>
  </diagram>
</mxfile>
